<svg width="261" height="261" viewBox="0 0 261 261" fill="none" xmlns="http://www.w3.org/2000/svg">
    <defs>
        <linearGradient id="myGradient" gradientTransform="rotate(90)">
            <stop offset="0%" stop-color="#FDFDFD" />
            <stop offset="100%" stop-color="#272624" />
        </linearGradient>
    </defs>

    <g clip-path="url(#clip0_303_17193)">
        <path
            d="M108.561 118.008C108.528 119.021 108.653 120.033 108.931 121.008C109.224 121.83 109.578 122.629 109.991 123.398C110.14 123.627 110.22 123.895 110.221 124.168C110.199 124.372 110.131 124.568 110.022 124.741C109.913 124.915 109.765 125.061 109.591 125.168L107.501 126.558C107.246 126.741 106.944 126.845 106.631 126.858C106.252 126.833 105.896 126.669 105.631 126.398C105.184 125.915 104.785 125.389 104.441 124.828C104.071 124.18 103.737 123.513 103.441 122.828C102.267 124.287 100.776 125.459 99.0815 126.254C97.3867 127.05 95.5326 127.448 93.6606 127.418C92.444 127.486 91.226 127.31 90.0787 126.899C88.9314 126.489 87.8779 125.852 86.9806 125.028C86.1516 124.19 85.5043 123.19 85.0793 122.091C84.6543 120.991 84.4607 119.816 84.5106 118.638C84.459 117.344 84.7023 116.054 85.222 114.868C85.7417 113.681 86.5243 112.628 87.5106 111.788C89.8201 109.958 92.718 109.033 95.6606 109.188C96.842 109.198 98.0215 109.288 99.1906 109.458C100.421 109.628 101.681 109.888 103.011 110.188V107.758C103.011 105.238 102.481 103.468 101.451 102.438C100.421 101.408 98.5906 100.908 96.0306 100.908C94.8173 100.91 93.6086 101.058 92.4306 101.348C91.2173 101.635 90.0273 102.013 88.8706 102.478C88.4926 102.644 88.1052 102.787 87.7106 102.908C87.5393 102.965 87.361 102.999 87.1806 103.008C86.7106 103.008 86.4806 102.678 86.4806 102.008V100.348C86.4438 99.9441 86.5236 99.538 86.7106 99.178C86.9638 98.88 87.282 98.644 87.6406 98.488C88.9745 97.8275 90.3806 97.3241 91.8306 96.988C93.5262 96.555 95.2707 96.3432 97.0206 96.358C101.021 96.358 103.871 97.248 105.731 99.048C107.591 100.848 108.491 103.568 108.491 107.228V118.008H108.561ZM95.0606 123.058C96.2257 123.046 97.381 122.843 98.4806 122.458C99.7024 122.042 100.793 121.311 101.641 120.338C102.178 119.726 102.565 118.996 102.771 118.208C103.002 117.259 103.116 116.285 103.111 115.308V113.918C101.086 113.414 99.0074 113.155 96.9206 113.148C95.1502 112.999 93.3829 113.469 91.9206 114.478C91.3898 114.953 90.9749 115.544 90.7079 116.204C90.441 116.865 90.329 117.577 90.3806 118.288C90.3286 118.928 90.4111 119.572 90.623 120.178C90.8348 120.784 91.1712 121.34 91.6106 121.808C92.0755 122.244 92.6257 122.578 93.2265 122.789C93.8272 123.001 94.4654 123.086 95.1006 123.038L95.0606 123.058ZM121.761 126.658C121.309 126.695 120.86 126.563 120.501 126.288C120.151 125.932 119.908 125.485 119.801 124.998L111.991 99.288C111.84 98.8578 111.739 98.4115 111.691 97.958C111.691 97.418 111.951 97.118 112.491 97.118H115.741C116.202 97.0593 116.667 97.1811 117.041 97.458C117.379 97.8178 117.611 98.2643 117.711 98.748L123.291 120.748L128.481 98.748C128.552 98.261 128.776 97.8093 129.121 97.458C129.521 97.22 129.986 97.1117 130.451 97.148H133.111C133.58 97.1009 134.051 97.2213 134.441 97.488C134.786 97.8373 135.008 98.2906 135.071 98.778L140.321 121.068L146.081 98.778C146.187 98.299 146.415 97.855 146.741 97.488C147.127 97.2406 147.582 97.1217 148.041 97.148H151.131C151.244 97.1329 151.359 97.1443 151.468 97.1814C151.576 97.2184 151.674 97.28 151.755 97.3614C151.835 97.4428 151.896 97.5418 151.931 97.6505C151.967 97.7592 151.977 97.8748 151.961 97.988C151.953 98.1659 151.933 98.343 151.901 98.518C151.845 98.8011 151.764 99.0788 151.661 99.348L143.661 125.058C143.56 125.551 143.317 126.003 142.961 126.358C142.585 126.597 142.145 126.712 141.701 126.688H138.831C138.362 126.738 137.891 126.621 137.501 126.358C137.154 125.992 136.93 125.527 136.861 125.028L131.711 103.568L126.591 124.988C126.506 125.472 126.287 125.922 125.961 126.288C125.571 126.555 125.1 126.675 124.631 126.628L121.761 126.658ZM164.501 127.548C162.776 127.55 161.058 127.349 159.381 126.948C158.052 126.683 156.766 126.236 155.561 125.618C155.143 125.413 154.795 125.09 154.561 124.688C154.435 124.394 154.371 124.078 154.371 123.758V122.068C154.371 121.368 154.631 121.068 155.131 121.068C155.334 121.072 155.537 121.106 155.731 121.168C155.931 121.238 156.231 121.368 156.561 121.508C157.735 122.027 158.962 122.416 160.221 122.668C161.537 122.937 162.877 123.071 164.221 123.068C165.909 123.164 167.589 122.783 169.071 121.968C169.613 121.641 170.058 121.177 170.362 120.621C170.666 120.066 170.817 119.441 170.801 118.808C170.812 118.379 170.738 117.953 170.583 117.553C170.429 117.153 170.197 116.788 169.901 116.478C168.928 115.654 167.778 115.065 166.541 114.758L161.721 113.258C159.634 112.718 157.772 111.531 156.401 109.868C155.33 108.485 154.747 106.787 154.741 105.038C154.68 103.738 154.963 102.444 155.561 101.288C156.153 100.218 156.968 99.2866 157.951 98.558C158.98 97.7858 160.143 97.2095 161.381 96.858C162.751 96.4611 164.174 96.269 165.601 96.288C166.346 96.2815 167.091 96.3249 167.831 96.418C168.591 96.518 169.291 96.658 169.991 96.788C170.691 96.918 171.291 97.118 171.891 97.318C172.373 97.4695 172.839 97.6706 173.281 97.918C173.673 98.1149 174.015 98.3988 174.281 98.748C174.497 99.0725 174.602 99.4585 174.581 99.848V101.408C174.581 102.108 174.311 102.478 173.821 102.478C173.376 102.424 172.946 102.289 172.551 102.078C170.544 101.186 168.367 100.742 166.171 100.778C164.637 100.688 163.108 101.009 161.741 101.708C161.227 102.013 160.809 102.456 160.534 102.986C160.258 103.516 160.136 104.112 160.181 104.708C160.171 105.15 160.255 105.589 160.427 105.995C160.599 106.402 160.856 106.768 161.181 107.068C162.258 107.929 163.505 108.553 164.841 108.898L169.561 110.398C171.563 110.909 173.361 112.023 174.711 113.588C175.724 114.928 176.263 116.568 176.241 118.248C176.249 119.57 175.955 120.877 175.381 122.068C174.788 123.203 173.959 124.199 172.951 124.988C171.852 125.842 170.599 126.476 169.261 126.858C167.718 127.327 166.113 127.559 164.501 127.548Z"
            fill="url('#myGradient')" />
        <path fill-rule="evenodd" clip-rule="evenodd"
            d="M170.791 143.718C159.851 151.798 143.951 156.088 130.281 156.088C112.02 156.185 94.381 149.459 80.8206 137.228C79.8206 136.298 80.7206 135.038 81.9506 135.768C97.0236 144.378 114.082 148.907 131.441 148.908C144.409 148.839 157.236 146.216 169.191 141.188C171.021 140.358 172.581 142.388 170.791 143.718Z"
            fill="url('#myGradient')" />
        <path fill-rule="evenodd" clip-rule="evenodd"
            d="M175.381 138.528C173.991 136.728 166.141 137.658 162.581 138.098C161.521 138.228 161.351 137.298 162.311 136.598C168.571 132.208 178.841 133.468 180.041 134.938C181.241 136.408 179.711 146.708 173.861 151.628C172.961 152.398 172.091 151.998 172.491 150.998C173.781 147.708 176.741 140.288 175.381 138.528Z"
            fill="url('#myGradient')" />
    </g>
    <defs>
        <filter id="filter0_d_303_17193" x="0.723999" y="0.593872" width="260" height="260"
            filterUnits="userSpaceOnUse" color-interpolation-filters="sRGB">
            <feFlood flood-opacity="0" result="BackgroundImageFix" />
            <feColorMatrix in="SourceAlpha" type="matrix"
                values="0 0 0 0 0 0 0 0 0 0 0 0 0 0 0 0 0 0 127 0" result="hardAlpha" />
            <feOffset dy="4" />
            <feGaussianBlur stdDeviation="20" />
            <feComposite in2="hardAlpha" operator="out" />
            <feColorMatrix type="matrix"
                values="0 0 0 0 0.0367917 0 0 0 0 0.0348958 0 0 0 0 0.0484375 0 0 0 0.1 0" />
            <feBlend mode="normal" in2="BackgroundImageFix" result="effect1_dropShadow_303_17193" />
            <feBlend mode="normal" in="SourceGraphic" in2="effect1_dropShadow_303_17193"
                result="shape" />
        </filter>
        <clipPath id="clip0_303_17193">
            <rect width="100" height="59.8" fill="white" transform="translate(80.3806 96.2881)" />
        </clipPath>
    </defs>
</svg>