<svg width="261" height="261" viewBox="0 0 261 261" fill="none" xmlns="http://www.w3.org/2000/svg">
    <defs>
        <linearGradient id="myGradient" gradientTransform="rotate(90)">
            <stop offset="0%" stop-color="#FDFDFD" />
            <stop offset="100%" stop-color="#272624" />
        </linearGradient>
    </defs>

    <g clip-path="url(#clip0_303_17121)">
        <path
            d="M110.935 113.55L129.935 102.6C130.166 102.463 130.431 102.39 130.7 102.39C130.969 102.39 131.233 102.463 131.465 102.6L150.465 113.6C150.694 113.739 150.886 113.931 151.025 114.16C151.155 114.396 151.224 114.661 151.225 114.93V136.79C151.214 137.056 151.135 137.314 150.995 137.54C150.855 137.766 150.658 137.952 150.425 138.08L131.485 149.08C131.253 149.217 130.989 149.29 130.72 149.29C130.451 149.29 130.186 149.217 129.955 149.08L110.935 138.08C110.706 137.941 110.514 137.749 110.375 137.52C110.245 137.284 110.176 137.019 110.175 136.75V114.88C110.175 114.611 110.245 114.347 110.378 114.114C110.511 113.88 110.703 113.686 110.935 113.55Z"
            fill="url('#myGradient')" />
        <path
            d="M179.865 124.08L157.175 84.5598C156.778 83.8371 156.201 83.2292 155.501 82.7947C154.8 82.3602 153.999 82.114 153.175 82.0798H107.795C106.971 82.114 106.17 82.3602 105.469 82.7947C104.769 83.2292 104.192 83.8371 103.795 84.5598L81.105 123.95C80.6969 124.659 80.4822 125.462 80.4822 126.28C80.4822 127.098 80.6969 127.901 81.105 128.61L103.795 167.77C104.211 168.451 104.801 169.009 105.504 169.386C106.207 169.764 106.997 169.948 107.795 169.92H153.175C153.971 169.955 154.762 169.775 155.466 169.401C156.169 169.026 156.759 168.47 157.175 167.79L179.865 128.57C180.273 127.885 180.488 127.102 180.488 126.305C180.488 125.508 180.273 124.725 179.865 124.04V124.08ZM161.075 143.08C161.067 143.368 160.985 143.65 160.836 143.897C160.687 144.144 160.476 144.348 160.225 144.49L131.315 161.08C131.068 161.224 130.786 161.3 130.5 161.3C130.214 161.3 129.932 161.224 129.685 161.08L100.755 144.43C100.502 144.289 100.29 144.085 100.14 143.838C99.9891 143.591 99.9047 143.309 99.895 143.02V109.67C99.9028 109.381 99.9852 109.1 100.134 108.853C100.283 108.606 100.494 108.401 100.745 108.26L129.655 91.5798C129.905 91.4424 130.185 91.3703 130.47 91.3703C130.755 91.3703 131.035 91.4424 131.285 91.5798L160.215 108.26C160.469 108.399 160.682 108.603 160.833 108.85C160.984 109.098 161.067 109.38 161.075 109.67V143.02V143.08Z"
            fill="url('#myGradient')" />
    </g>
    <defs>
        <filter id="filter0_d_303_17121" x="0.932861" y="0.405762" width="260" height="260"
            filterUnits="userSpaceOnUse" color-interpolation-filters="sRGB">
            <feFlood flood-opacity="0" result="BackgroundImageFix" />
            <feColorMatrix in="SourceAlpha" type="matrix"
                values="0 0 0 0 0 0 0 0 0 0 0 0 0 0 0 0 0 0 127 0" result="hardAlpha" />
            <feOffset dy="4" />
            <feGaussianBlur stdDeviation="20" />
            <feComposite in2="hardAlpha" operator="out" />
            <feColorMatrix type="matrix"
                values="0 0 0 0 0.0367917 0 0 0 0 0.0348958 0 0 0 0 0.0484375 0 0 0 0.1 0" />
            <feBlend mode="normal" in2="BackgroundImageFix" result="effect1_dropShadow_303_17121" />
            <feBlend mode="normal" in="SourceGraphic" in2="effect1_dropShadow_303_17121"
                result="shape" />
        </filter>
        <clipPath id="clip0_303_17121">
            <rect width="100" height="87.84" fill="white" transform="translate(80.485 82.0798)" />
        </clipPath>
    </defs>
</svg>