<svg width="261" height="261" viewBox="0 0 261 261" fill="none" xmlns="http://www.w3.org/2000/svg">
    <defs>
        <linearGradient id="myGradient" gradientTransform="rotate(60)">
            <stop offset="0%" stop-color="#e21143" />
            <stop offset="100%" stop-color="#ffb03a" />
        </linearGradient>
    </defs>

    <g clip-path="url(#clip0_303_17122)">
        <path
            d="M130.276 77.4231C118.395 77.4121 106.899 81.6321 97.8465 89.3269C88.7942 97.0217 82.7778 107.688 80.8752 119.416C78.9725 131.143 81.3081 143.165 87.4633 153.327C93.6185 163.489 103.191 171.127 114.466 174.873C116.966 175.333 117.886 173.783 117.886 172.463C117.886 171.143 117.886 167.333 117.816 163.153C103.906 166.153 100.976 157.253 100.976 157.253C98.6961 151.473 95.4161 149.943 95.4161 149.943C90.8861 146.833 95.7661 146.943 95.7661 146.943C100.766 147.293 103.426 152.093 103.426 152.093C107.886 159.733 115.126 157.523 117.976 156.253C118.201 153.714 119.33 151.341 121.156 149.563C110.046 148.253 98.3761 143.973 98.3761 124.813C98.3126 119.855 100.156 115.061 103.526 111.423C103.006 110.163 101.296 105.073 104.006 98.1931C104.006 98.1931 108.206 96.8431 117.766 103.313C125.95 101.08 134.582 101.08 142.766 103.313C152.306 96.8431 156.496 98.1931 156.496 98.1931C159.216 105.073 157.496 110.193 156.986 111.423C160.375 115.052 162.234 119.848 162.176 124.813C162.176 144.013 150.476 148.243 139.346 149.483C141.136 151.033 142.736 154.073 142.736 158.743C142.736 165.433 142.676 170.813 142.676 172.463C142.676 173.793 143.576 175.353 146.116 174.863C157.386 171.111 166.952 163.47 173.101 153.307C179.25 143.144 181.58 131.125 179.674 119.4C177.769 107.676 171.751 97.0134 162.7 89.3218C153.648 81.6302 142.154 77.4121 130.276 77.4231Z"
            fill="url('#myGradient')" />
        <path
            d="M99.0061 148.653C98.9084 148.782 98.7653 148.87 98.6057 148.897C98.4461 148.925 98.2818 148.892 98.1461 148.803C97.7861 148.643 97.5761 148.303 97.6961 148.053C97.8161 147.803 98.1961 147.723 98.5561 147.893C98.9161 148.063 99.1261 148.403 99.0061 148.653ZM101.466 150.843C101.226 151.063 100.756 150.963 100.466 150.613C100.326 150.491 100.235 150.323 100.209 150.139C100.184 149.956 100.225 149.769 100.326 149.613C100.566 149.393 101.026 149.493 101.326 149.843C101.626 150.193 101.726 150.663 101.476 150.843H101.466ZM103.146 153.653C102.846 153.863 102.346 153.653 102.036 153.223C101.726 152.793 101.726 152.223 102.036 152.033C102.346 151.843 102.846 152.033 103.156 152.453C103.466 152.873 103.466 153.453 103.156 153.653H103.146ZM106.006 156.903C105.796 157.008 105.558 157.045 105.326 157.011C105.093 156.976 104.877 156.871 104.706 156.71C104.534 156.549 104.417 156.339 104.369 156.109C104.321 155.879 104.344 155.639 104.436 155.423C104.638 155.295 104.88 155.244 105.116 155.279C105.353 155.314 105.569 155.432 105.726 155.613C106.166 156.023 106.296 156.613 106.006 156.893V156.903ZM109.686 158.003C109.566 158.393 109.006 158.573 108.446 158.403C107.886 158.233 107.506 157.773 107.616 157.403C107.726 157.033 108.306 156.823 108.876 156.993C109.446 157.163 109.806 157.623 109.686 157.993V158.003ZM113.886 158.463C113.886 158.883 113.426 159.223 112.826 159.233C112.226 159.243 111.746 158.913 111.736 158.503C111.726 158.093 112.206 157.743 112.806 157.733C113.406 157.723 113.886 158.053 113.886 158.463ZM118.006 158.313C118.086 158.713 117.666 159.123 117.076 159.233C116.486 159.343 115.966 159.093 115.886 158.693C115.806 158.293 116.236 157.873 116.816 157.763C117.396 157.653 117.936 157.903 118.006 158.313Z"
            fill="url('#myGradient')" />
    </g>
    <defs>
        <filter id="filter0_d_303_17122" x="0.723999" y="0.593872" width="260" height="260"
            filterUnits="userSpaceOnUse" color-interpolation-filters="sRGB">
            <feFlood flood-opacity="0" result="BackgroundImageFix" />
            <feColorMatrix in="SourceAlpha" type="matrix"
                values="0 0 0 0 0 0 0 0 0 0 0 0 0 0 0 0 0 0 127 0" result="hardAlpha" />
            <feOffset dy="4" />
            <feGaussianBlur stdDeviation="20" />
            <feComposite in2="hardAlpha" operator="out" />
            <feColorMatrix type="matrix"
                values="0 0 0 0 0.0367917 0 0 0 0 0.0348958 0 0 0 0 0.0484375 0 0 0 0.1 0" />
            <feBlend mode="normal" in2="BackgroundImageFix" result="effect1_dropShadow_303_17122" />
            <feBlend mode="normal" in="SourceGraphic" in2="effect1_dropShadow_303_17122"
                result="shape" />
        </filter>
        <clipPath id="clip0_303_17122">
            <rect width="100" height="97.53" fill="white" transform="translate(80.2761 77.4231)" />
        </clipPath>
    </defs>
</svg>