<svg width="261" height="261" viewBox="0 0 261 261" fill="none" xmlns="http://www.w3.org/2000/svg">
    <defs>
        <linearGradient id="myGradient" gradientTransform="rotate(90)">
            <stop offset="0%" stop-color="#FDFDFD" />
            <stop offset="100%" stop-color="#272624" />
        </linearGradient>
    </defs>

    <g clip-path="url(#clip0_303_17228)">
        <path
            d="M87.8261 119.115C87.6261 119.115 87.5761 119.025 87.6761 118.875L88.6761 117.555C88.7505 117.471 88.8435 117.406 88.9477 117.364C89.0519 117.322 89.1643 117.306 89.2761 117.315H106.616C106.816 117.315 106.856 117.465 106.766 117.605L105.936 118.875C105.878 118.954 105.805 119.02 105.721 119.07C105.636 119.12 105.543 119.152 105.446 119.165L87.8261 119.115ZM80.4661 123.595C80.2761 123.595 80.2261 123.495 80.3261 123.355L81.3261 122.035C81.3972 121.958 81.4841 121.898 81.5808 121.858C81.6775 121.819 81.7817 121.801 81.8861 121.805H104.086C104.124 121.8 104.162 121.804 104.197 121.817C104.232 121.831 104.264 121.853 104.288 121.882C104.312 121.912 104.328 121.947 104.335 121.984C104.342 122.021 104.339 122.059 104.326 122.095L103.936 123.265C103.907 123.356 103.847 123.435 103.767 123.488C103.687 123.54 103.592 123.564 103.496 123.555L80.4661 123.595ZM92.2761 128.075C92.0761 128.075 92.0261 127.935 92.1261 127.785L92.8061 126.565C92.862 126.484 92.9347 126.416 93.0193 126.366C93.1039 126.316 93.1984 126.285 93.2961 126.275H103.036C103.226 126.275 103.326 126.425 103.326 126.615L103.206 127.805C103.199 127.893 103.161 127.976 103.099 128.038C103.037 128.1 102.954 128.138 102.866 128.145L92.2761 128.075ZM142.816 118.245C139.746 119.025 137.646 119.605 134.636 120.385C133.906 120.575 133.856 120.625 133.216 119.895C132.607 119.113 131.827 118.48 130.936 118.045C129.541 117.343 127.98 117.039 126.423 117.168C124.867 117.297 123.377 117.853 122.116 118.775C120.532 119.73 119.233 121.091 118.354 122.718C117.475 124.345 117.047 126.177 117.116 128.025C117.093 129.881 117.748 131.682 118.957 133.09C120.167 134.498 121.848 135.417 123.686 135.675C125.227 135.901 126.8 135.722 128.251 135.158C129.702 134.594 130.982 133.662 131.966 132.455C132.406 131.925 132.786 131.335 133.276 130.655H123.876C122.876 130.655 122.616 130.025 122.956 129.195C123.586 127.685 124.756 125.195 125.436 123.885C125.542 123.651 125.714 123.453 125.931 123.315C126.147 123.176 126.399 123.103 126.656 123.105H144.396C144.306 124.425 144.306 125.735 144.106 127.055C143.596 130.521 142.22 133.802 140.106 136.595C138.489 138.847 136.428 140.744 134.049 142.168C131.67 143.592 129.025 144.514 126.276 144.875C123.989 145.246 121.65 145.152 119.4 144.601C117.15 144.05 115.033 143.051 113.176 141.665C111.447 140.396 110.003 138.778 108.938 136.916C107.874 135.054 107.212 132.989 106.996 130.855C106.695 128.323 106.903 125.757 107.607 123.307C108.311 120.856 109.497 118.571 111.096 116.585C114.391 112.133 119.271 109.119 124.726 108.165C126.926 107.676 129.202 107.634 131.418 108.043C133.634 108.452 135.746 109.303 137.626 110.545C140.154 112.219 142.122 114.612 143.276 117.415C143.566 117.855 143.376 118.095 142.796 118.245H142.816Z"
            fill="url('#myGradient')" />
        <path
            d="M158.906 145.165C154.564 145.194 150.352 143.677 147.026 140.885C144.194 138.491 142.326 135.151 141.766 131.485C141.354 128.898 141.493 126.253 142.174 123.723C142.855 121.194 144.062 118.836 145.716 116.805C147.328 114.603 149.364 112.747 151.705 111.345C154.046 109.944 156.644 109.026 159.346 108.645C164.276 107.805 168.986 108.255 173.276 111.135C175.145 112.332 176.729 113.925 177.914 115.802C179.1 117.679 179.858 119.793 180.136 121.995C180.605 124.993 180.341 128.06 179.366 130.934C178.39 133.807 176.733 136.402 174.536 138.495C171.364 141.707 167.291 143.879 162.856 144.725C161.536 144.975 160.226 145.015 158.956 145.165H158.906ZM170.496 125.495C170.478 124.956 170.428 124.418 170.346 123.885C170.169 122.783 169.764 121.73 169.155 120.794C168.547 119.858 167.75 119.06 166.815 118.45C165.879 117.841 164.827 117.434 163.725 117.256C162.623 117.077 161.496 117.132 160.416 117.415C158.307 117.802 156.364 118.818 154.843 120.33C153.323 121.841 152.295 123.778 151.896 125.885C151.45 127.7 151.655 129.614 152.473 131.295C153.291 132.976 154.672 134.317 156.376 135.085C157.626 135.647 158.989 135.914 160.359 135.866C161.729 135.817 163.069 135.454 164.276 134.805C166.065 133.978 167.59 132.671 168.681 131.029C169.772 129.387 170.387 127.475 170.456 125.505L170.496 125.495Z"
            fill="url('#myGradient')" />
    </g>
    <defs>
        <filter id="filter0_d_303_17228" x="0.723999" y="0.890869" width="260" height="260"
            filterUnits="userSpaceOnUse" color-interpolation-filters="sRGB">
            <feFlood flood-opacity="0" result="BackgroundImageFix" />
            <feColorMatrix in="SourceAlpha" type="matrix"
                values="0 0 0 0 0 0 0 0 0 0 0 0 0 0 0 0 0 0 127 0" result="hardAlpha" />
            <feOffset dy="4" />
            <feGaussianBlur stdDeviation="20" />
            <feComposite in2="hardAlpha" operator="out" />
            <feColorMatrix type="matrix"
                values="0 0 0 0 0.0367917 0 0 0 0 0.0348958 0 0 0 0 0.0484375 0 0 0 0.1 0" />
            <feBlend mode="normal" in2="BackgroundImageFix" result="effect1_dropShadow_303_17228" />
            <feBlend mode="normal" in="SourceGraphic" in2="effect1_dropShadow_303_17228"
                result="shape" />
        </filter>
        <clipPath id="clip0_303_17228">
            <rect width="100" height="37.36" fill="white" transform="translate(80.2761 107.805)" />
        </clipPath>
    </defs>
</svg>