<svg width="261" height="261" viewBox="0 0 261 261" fill="none" xmlns="http://www.w3.org/2000/svg">
    <defs>
        <linearGradient id="myGradient" gradientTransform="rotate(60)">
            <stop offset="0%" stop-color="#e21143" />
            <stop offset="100%" stop-color="#ffb03a" />
        </linearGradient>
    </defs>

    <g clip-path="url(#clip0_303_17133)">
        <path
            d="M170.538 125.022C170.538 122.553 169.557 120.185 167.811 118.439C166.065 116.693 163.697 115.712 161.228 115.712C160.898 115.712 160.568 115.712 160.228 115.712L173.038 78.0522H118.708L131.468 115.782C131.281 115.772 131.094 115.772 130.908 115.782C128.687 115.782 126.538 116.576 124.851 118.02C123.164 119.465 122.049 121.465 121.707 123.66C121.365 125.855 121.82 128.1 122.988 129.989C124.156 131.878 125.962 133.287 128.078 133.962C126.097 137.371 123.631 140.473 120.758 143.172C117.03 146.738 112.604 149.493 107.758 151.262C102.078 148.342 99.3879 141.852 101.808 136.162C102.088 135.512 102.368 134.862 102.628 134.162C104.704 133.677 106.55 132.494 107.859 130.811C109.167 129.128 109.859 127.047 109.817 124.915C109.776 122.784 109.004 120.731 107.631 119.1C106.258 117.47 104.367 116.359 102.273 115.955C100.18 115.551 98.0117 115.878 96.1303 116.881C94.2489 117.883 92.7687 119.501 91.9368 121.464C91.105 123.427 90.972 125.616 91.5601 127.665C92.1482 129.714 93.4217 131.499 95.1679 132.722C92.8179 137.952 89.4379 143.442 88.3779 149.782C87.1179 157.412 88.3779 165.502 94.9679 170.072C110.328 180.722 126.968 163.472 144.578 159.142C150.948 157.572 157.948 157.822 163.578 154.572C165.601 153.42 167.346 151.837 168.69 149.936C170.034 148.036 170.945 145.863 171.358 143.572C171.727 141.381 171.651 139.139 171.136 136.977C170.621 134.816 169.676 132.781 168.358 130.992C169.768 129.312 170.536 127.186 170.528 124.992"
            fill="#161513" />
        <path
            d="M169.098 143.172C168.746 145.141 167.965 147.008 166.811 148.641C165.656 150.275 164.156 151.634 162.418 152.622C159.098 154.542 155.118 155.122 150.908 155.732C148.599 156.024 146.306 156.431 144.038 156.952C138.038 158.442 132.168 161.342 126.528 164.142C115.228 169.782 105.468 174.602 96.2679 168.222C89.5279 163.552 89.8379 154.912 90.6579 150.172C91.3479 145.782 93.3179 141.782 95.2179 137.842C95.5479 137.172 95.8679 136.512 96.2179 135.842C97.1792 136.227 98.1885 136.48 99.2179 136.592C97.2379 142.982 100.288 149.932 106.658 153.222L107.538 153.662L108.458 153.342C113.624 151.486 118.345 148.57 122.318 144.782C124.937 142.318 127.239 139.537 129.168 136.502C129.744 136.585 130.326 136.629 130.908 136.632C133.704 136.628 136.404 135.613 138.512 133.776C140.619 131.938 141.992 129.402 142.378 126.632C144.788 126.542 147.378 126.542 149.748 126.632C150.134 129.403 151.508 131.941 153.618 133.779C155.727 135.617 158.43 136.63 161.228 136.632C163.589 136.634 165.894 135.908 167.828 134.552C169.154 137.229 169.599 140.257 169.098 143.202V143.172ZM100.468 118.052C102.324 118.052 104.105 118.79 105.418 120.102C106.73 121.415 107.468 123.196 107.468 125.052C107.472 126.398 107.082 127.715 106.348 128.842C105.758 129.77 104.959 130.546 104.014 131.107C103.069 131.668 102.005 131.999 100.908 132.072H100.428C99.5875 132.071 98.7542 131.919 97.9679 131.622C96.4496 131.046 95.1753 129.966 94.3579 128.562C93.7474 127.505 93.4298 126.303 93.4379 125.082C93.4379 123.226 94.1754 121.445 95.4882 120.132C96.8009 118.82 98.5814 118.082 100.438 118.082L100.468 118.052ZM123.868 125.052C123.861 123.359 124.463 121.721 125.565 120.436C126.667 119.15 128.194 118.304 129.868 118.052C130.199 118.002 130.533 117.976 130.868 117.972C132.724 117.972 134.505 118.71 135.818 120.022C137.13 121.335 137.868 123.116 137.868 124.972C137.866 125.521 137.803 126.068 137.678 126.602C137.351 128.014 136.598 129.29 135.521 130.26C134.444 131.229 133.096 131.844 131.658 132.022C131.418 132.022 131.188 132.022 130.948 132.022C129.091 132.022 127.311 131.285 125.998 129.972C124.685 128.659 123.948 126.879 123.948 125.022L123.868 125.052ZM153.228 116.682C151.696 118.143 150.596 119.998 150.048 122.042C147.398 121.942 144.738 121.942 142.048 122.042C141.456 119.864 140.243 117.904 138.558 116.402L145.838 101.682L153.228 116.682ZM121.878 80.3322H169.878L158.528 113.782C158.038 113.894 157.557 114.041 157.088 114.222L145.898 91.3622L134.658 114.062C134.166 113.899 133.666 113.765 133.158 113.662L121.878 80.3322ZM168.258 125.022C168.257 125.7 168.156 126.374 167.958 127.022C167.646 127.89 167.166 128.688 166.546 129.371C165.926 130.054 165.177 130.607 164.343 131.001C163.508 131.394 162.605 131.619 161.683 131.663C160.762 131.707 159.841 131.569 158.973 131.257C158.105 130.945 157.307 130.466 156.624 129.845C155.942 129.225 155.388 128.476 154.995 127.642C154.601 126.807 154.376 125.904 154.332 124.983C154.288 124.061 154.426 123.14 154.738 122.272C154.918 121.843 155.142 121.434 155.408 121.052C156.049 120.097 156.915 119.315 157.93 118.774C158.945 118.233 160.078 117.951 161.228 117.952H161.888C163.633 118.11 165.256 118.916 166.435 120.213C167.615 121.509 168.265 123.2 168.258 124.952V125.022ZM172.808 125.022C172.808 122.322 171.864 119.707 170.141 117.629C168.417 115.552 166.021 114.141 163.368 113.642L176.208 75.7822H115.538L128.388 113.712C126.142 114.213 124.097 115.371 122.512 117.038C120.928 118.706 119.876 120.808 119.491 123.076C119.105 125.344 119.405 127.676 120.35 129.773C121.295 131.87 122.844 133.639 124.798 134.852C123.184 137.252 121.306 139.462 119.198 141.442C115.94 144.563 112.11 147.025 107.918 148.692C105.949 147.552 104.456 145.742 103.712 143.592C102.968 141.441 103.024 139.095 103.868 136.982L104.008 136.642L104.268 136.022C106.649 135.198 108.697 133.62 110.101 131.527C111.505 129.434 112.188 126.941 112.048 124.425C111.908 121.909 110.951 119.507 109.324 117.584C107.696 115.66 105.485 114.319 103.027 113.764C100.569 113.21 97.9972 113.471 95.7011 114.509C93.4049 115.548 91.5097 117.306 90.3025 119.518C89.0953 121.73 88.6419 124.275 89.0109 126.768C89.38 129.26 90.5515 131.565 92.3479 133.332C91.9479 134.172 91.5379 135.012 91.1279 135.852C89.1879 139.852 86.9779 144.392 86.1279 149.432C84.4679 159.432 87.1279 167.432 93.6679 171.962C97.1668 174.458 101.36 175.794 105.658 175.782C113.268 175.782 120.978 171.952 128.508 168.212C133.928 165.522 139.508 162.732 145.088 161.362C147.148 160.862 149.268 160.552 151.518 160.232C156.008 159.582 160.658 158.922 164.658 156.562C166.972 155.24 168.968 153.425 170.502 151.246C172.037 149.067 173.073 146.577 173.538 143.952C174.299 139.492 173.422 134.907 171.068 131.042C172.179 129.238 172.768 127.161 172.768 125.042L172.808 125.022Z"
            fill="url('#myGradient')" />
    </g>
    <defs>
        <filter id="filter0_d_303_17133" x="0.65686" y="0.187988" width="260" height="260"
            filterUnits="userSpaceOnUse" color-interpolation-filters="sRGB">
            <feFlood flood-opacity="0" result="BackgroundImageFix" />
            <feColorMatrix in="SourceAlpha" type="matrix"
                values="0 0 0 0 0 0 0 0 0 0 0 0 0 0 0 0 0 0 127 0" result="hardAlpha" />
            <feOffset dy="4" />
            <feGaussianBlur stdDeviation="20" />
            <feComposite in2="hardAlpha" operator="out" />
            <feColorMatrix type="matrix"
                values="0 0 0 0 0.0367917 0 0 0 0 0.0348958 0 0 0 0 0.0484375 0 0 0 0.1 0" />
            <feBlend mode="normal" in2="BackgroundImageFix" result="effect1_dropShadow_303_17133" />
            <feBlend mode="normal" in="SourceGraphic" in2="effect1_dropShadow_303_17133"
                result="shape" />
        </filter>
        <clipPath id="clip0_303_17133">
            <rect width="90.55" height="100" fill="white" transform="translate(85.6579 75.7822)" />
        </clipPath>
    </defs>
</svg>