<svg width="261" height="260" viewBox="0 0 261 260" fill="none" xmlns="http://www.w3.org/2000/svg">
    <defs>
        <linearGradient id="myGradient" gradientTransform="rotate(90)">
            <stop offset="0%" stop-color="#FDFDFD" />
            <stop offset="100%" stop-color="#272624" />
        </linearGradient>
    </defs>
    <g clip-path="url(#clip0_303_17107)">
        <path
            d="M126.733 77.367C127.984 76.6663 129.394 76.2983 130.828 76.2983C132.262 76.2983 133.672 76.6663 134.923 77.367C147.383 84.407 159.847 91.447 172.313 98.487C173.484 99.1561 174.46 100.12 175.142 101.283C175.825 102.447 176.191 103.768 176.203 105.117V147.487C176.185 148.894 175.787 150.269 175.052 151.468C174.316 152.667 173.269 153.644 172.023 154.297L134.763 175.297C133.484 176.006 132.036 176.357 130.574 176.313C129.112 176.269 127.688 175.832 126.453 175.047C122.733 172.887 119.007 170.734 115.273 168.587C114.456 168.216 113.722 167.686 113.113 167.027C113.593 166.387 114.443 166.307 115.113 166.027C116.642 165.499 118.119 164.829 119.523 164.027C119.699 163.919 119.904 163.867 120.109 163.88C120.315 163.892 120.512 163.968 120.673 164.097C123.853 165.917 127.013 167.797 130.213 169.607C130.893 169.997 131.583 169.477 132.163 169.157C144.357 162.237 156.567 155.337 168.793 148.457C169.006 148.351 169.182 148.184 169.3 147.977C169.417 147.771 169.471 147.534 169.453 147.297C169.453 133.297 169.453 119.297 169.453 105.297C169.476 105.026 169.412 104.755 169.272 104.522C169.133 104.288 168.923 104.105 168.673 103.997L131.553 83.097C131.34 82.9465 131.085 82.8661 130.823 82.867C130.562 82.8681 130.308 82.9483 130.093 83.097C117.727 90.0704 105.353 97.047 92.9734 104.027C92.7261 104.13 92.5171 104.308 92.3755 104.536C92.234 104.763 92.1668 105.029 92.1834 105.297C92.1834 119.297 92.1834 133.277 92.1834 147.237C92.1624 147.477 92.2147 147.717 92.3334 147.927C92.458 148.139 92.6424 148.309 92.8634 148.417L102.773 154.017C103.691 154.581 104.717 154.947 105.785 155.09C106.853 155.233 107.939 155.15 108.973 154.847C109.871 154.508 110.643 153.903 111.188 153.113C111.733 152.323 112.024 151.386 112.023 150.427C112.023 136.527 112.023 122.627 112.023 108.737C112.011 108.587 112.033 108.437 112.087 108.297C112.141 108.157 112.226 108.03 112.336 107.928C112.445 107.825 112.577 107.748 112.72 107.703C112.863 107.658 113.015 107.646 113.163 107.667C114.753 107.667 116.333 107.667 117.923 107.667C118.075 107.679 118.222 107.722 118.356 107.794C118.49 107.865 118.607 107.964 118.701 108.083C118.795 108.202 118.864 108.34 118.902 108.487C118.94 108.634 118.947 108.787 118.923 108.937C118.923 122.937 118.923 136.937 118.923 150.887C118.923 154.617 117.393 158.667 113.923 160.487C109.743 162.727 104.453 162.297 100.293 160.157C96.6634 158.347 93.1934 156.157 89.6334 154.257C88.3898 153.612 87.3443 152.641 86.6083 151.449C85.8722 150.257 85.4731 148.888 85.4534 147.487V105.117C85.4592 103.742 85.8333 102.393 86.5367 101.211C87.2402 100.03 88.2473 99.0579 89.4534 98.397L126.733 77.367Z"
            fill="url('#myGradient')" />
        <path
            d="M137.563 106.717C142.983 106.367 148.783 106.507 153.663 109.177C157.433 111.177 159.523 115.517 159.593 119.707C159.523 119.973 159.359 120.205 159.131 120.359C158.903 120.514 158.627 120.58 158.353 120.547C156.783 120.547 155.213 120.547 153.643 120.547C153.341 120.527 153.056 120.395 152.845 120.177C152.635 119.959 152.513 119.67 152.503 119.367C152.33 118.333 151.933 117.349 151.338 116.485C150.744 115.621 149.968 114.898 149.063 114.367C146.173 112.917 142.803 112.987 139.643 113.017C137.343 113.137 134.853 113.337 132.903 114.697C132.185 115.241 131.658 115.999 131.397 116.861C131.137 117.724 131.156 118.646 131.453 119.497C131.953 120.697 133.343 121.087 134.453 121.447C140.983 123.147 147.903 122.977 154.303 125.227C156.953 126.147 159.553 127.927 160.453 130.697C161.094 132.574 161.247 134.583 160.897 136.536C160.547 138.488 159.706 140.319 158.453 141.857C156.197 144.202 153.263 145.782 150.063 146.377C145.915 147.221 141.659 147.403 137.453 146.917C133.453 146.467 129.363 145.427 126.313 142.727C125.043 141.562 124.046 140.13 123.394 138.534C122.742 136.939 122.452 135.218 122.543 133.497C122.578 133.222 122.719 132.971 122.935 132.798C123.152 132.624 123.427 132.541 123.703 132.567C125.283 132.567 126.863 132.567 128.453 132.567C128.599 132.563 128.745 132.588 128.881 132.641C129.018 132.694 129.142 132.773 129.247 132.875C129.352 132.976 129.436 133.098 129.494 133.232C129.552 133.366 129.582 133.511 129.583 133.657C129.66 134.638 129.937 135.592 130.398 136.461C130.859 137.329 131.494 138.094 132.263 138.707C135.473 140.787 139.513 140.647 143.193 140.707C146.243 140.577 149.673 140.537 152.193 138.517C152.807 137.912 153.254 137.158 153.49 136.33C153.727 135.501 153.745 134.625 153.543 133.787C153.153 132.387 151.693 131.737 150.443 131.317C143.993 129.317 137.003 130.017 130.613 127.707C128.023 126.797 125.523 125.057 124.523 122.397C123.79 120.498 123.604 118.431 123.988 116.431C124.371 114.431 125.309 112.58 126.693 111.087C129.543 108.217 133.693 107.087 137.573 106.717H137.563Z"
            fill="url('#myGradient')" />
    </g>
    <defs>
        <filter id="filter0_d_303_17107" x="0.723999" y="0" width="260" height="260"
            filterUnits="userSpaceOnUse" color-interpolation-filters="sRGB">
            <feFlood flood-opacity="0" result="BackgroundImageFix" />
            <feColorMatrix in="SourceAlpha" type="matrix"
                values="0 0 0 0 0 0 0 0 0 0 0 0 0 0 0 0 0 0 127 0" result="hardAlpha" />
            <feOffset dy="4" />
            <feGaussianBlur stdDeviation="20" />
            <feComposite in2="hardAlpha" operator="out" />
            <feColorMatrix type="matrix"
                values="0 0 0 0 0.0367917 0 0 0 0 0.0348958 0 0 0 0 0.0484375 0 0 0 0.1 0" />
            <feBlend mode="normal" in2="BackgroundImageFix" result="effect1_dropShadow_303_17107" />
            <feBlend mode="normal" in="SourceGraphic" in2="effect1_dropShadow_303_17107"
                result="shape" />
        </filter>
        <clipPath id="clip0_303_17107">
            <rect width="90.75" height="100" fill="white" transform="translate(85.4534 76.2971)" />
        </clipPath>
    </defs>
</svg>