<svg width="261" height="260" viewBox="0 0 261 260" fill="none" xmlns="http://www.w3.org/2000/svg">
    <defs>
        <linearGradient id="myGradient" gradientTransform="rotate(60)">
            <stop offset="0%" stop-color="#e21143" />
            <stop offset="100%" stop-color="#ffb03a" />
        </linearGradient>
    </defs>
    <g clip-path="url(#clip0_303_17215)">
        <path
            d="M167.214 131.912C164.075 131.918 160.977 132.636 158.154 134.012C157.284 132.543 156.612 130.966 156.154 129.322C155.883 128.007 155.823 126.656 155.974 125.322C156.259 123.899 156.636 122.496 157.104 121.122C157.104 120.932 156.884 120.122 154.874 120.062C152.864 120.002 151.124 120.442 150.874 120.972C150.527 121.952 150.246 122.954 150.034 123.972C149.684 125.792 146.034 132.312 143.914 135.732C143.289 134.661 142.821 133.506 142.524 132.302C142.259 131.003 142.198 129.67 142.344 128.352C142.651 126.912 143.049 125.492 143.534 124.102C143.534 123.912 143.314 123.052 141.304 123.042C139.294 123.032 137.564 123.422 137.364 123.952C137.164 124.482 136.944 125.722 136.524 126.952C136.104 128.182 131.304 139.002 130.024 141.802C129.364 143.242 128.804 144.392 128.394 145.182C128.379 145.235 128.355 145.286 128.324 145.332L127.774 146.332C127.504 146.822 127.214 147.282 127.064 147.282C126.797 146.263 126.797 145.191 127.064 144.172C127.794 140.392 129.524 134.512 129.504 134.312C129.484 134.112 129.834 133.172 128.374 132.642C128.036 132.483 127.658 132.431 127.29 132.494C126.921 132.557 126.581 132.73 126.314 132.992C126.184 132.992 126.094 133.302 126.094 133.302C126.094 133.302 127.724 126.802 123.104 126.802C120.214 126.802 116.234 129.962 114.264 132.802L107.534 136.472C106.464 137.072 105.344 137.682 104.304 138.242C104.234 138.172 104.164 138.082 104.084 138.012C98.4945 132.002 88.1645 127.802 88.5945 119.802C88.7645 116.802 89.7645 109.172 108.454 99.8619C123.834 92.2819 136.104 94.3819 138.184 99.0319C141.184 105.682 131.634 118.032 115.744 119.822C109.674 120.502 106.494 118.162 105.744 117.282C104.994 116.402 104.744 116.282 104.464 116.502C103.954 116.772 104.284 117.592 104.464 118.072C104.944 119.312 106.894 121.502 110.204 122.582C113.124 123.532 120.204 124.062 128.834 120.732C138.404 117.012 145.934 106.652 143.724 97.9719C141.514 89.2919 126.904 86.2719 113.104 91.1819C104.854 94.1019 95.9445 98.7019 89.5345 104.702C81.9145 111.802 80.7045 118.012 81.2045 120.602C82.9745 129.802 95.6645 135.802 100.744 140.242L100.054 140.622C97.5145 141.882 87.8345 146.942 85.4245 152.302C82.6845 158.362 85.8545 162.712 87.9545 163.302C94.4845 165.112 101.184 161.862 104.784 156.492C108.384 151.122 107.944 144.142 106.274 140.942C106.265 140.89 106.241 140.841 106.204 140.802L108.204 139.642C109.504 138.872 110.784 138.162 111.874 137.572C111.135 139.717 110.701 141.956 110.584 144.222C110.304 147.652 111.714 152.112 113.584 153.862C113.915 154.147 114.3 154.364 114.715 154.5C115.131 154.635 115.569 154.687 116.004 154.652C118.154 154.652 119.124 152.862 120.204 150.742C121.514 148.152 122.704 145.132 122.704 145.132C122.704 145.132 121.184 153.302 125.204 153.302C126.664 153.302 128.144 151.402 128.804 150.432L128.914 150.252L129.144 149.862C129.734 148.862 131.044 146.522 133.004 142.662C135.524 137.662 138.004 131.482 138.004 131.482C138.253 132.835 138.587 134.171 139.004 135.482C139.598 137.086 140.296 138.649 141.094 140.162C140.504 140.982 140.144 141.432 140.144 141.432C139.664 142.052 139.144 142.732 138.584 143.432C136.584 145.802 134.224 148.522 133.894 149.312C133.678 149.658 133.602 150.075 133.684 150.475C133.766 150.875 133.999 151.229 134.334 151.462C135.083 151.857 135.938 152.001 136.774 151.872C138.04 151.799 139.285 151.511 140.454 151.022C141.584 150.628 142.649 150.069 143.614 149.362C144.606 148.667 145.403 147.73 145.928 146.639C146.453 145.548 146.69 144.34 146.614 143.132C146.497 141.608 146.107 140.118 145.464 138.732C145.644 138.482 145.804 138.222 145.994 137.972C148.021 134.936 149.852 131.772 151.474 128.502C151.723 129.855 152.057 131.191 152.474 132.502C152.959 133.881 153.555 135.219 154.254 136.502C151.917 138.302 150.078 140.671 148.914 143.382C147.764 146.712 148.664 148.212 150.364 148.552C151.284 148.617 152.203 148.43 153.024 148.012C154.236 147.614 155.376 147.026 156.404 146.272C158.404 144.832 160.244 142.822 160.134 140.102C160.047 138.846 159.764 137.611 159.294 136.442C162.377 135.238 165.72 134.855 168.994 135.332C177.684 136.332 179.404 141.782 179.074 144.062C178.92 144.873 178.593 145.641 178.117 146.315C177.641 146.99 177.027 147.555 176.314 147.972C175.714 148.352 175.514 148.482 175.564 148.752C175.614 149.022 175.934 149.142 176.444 149.072C177.727 148.65 178.855 147.857 179.685 146.792C180.515 145.727 181.009 144.439 181.104 143.092C181.364 137.722 176.254 131.862 167.214 131.912ZM100.104 154.522C97.2145 157.672 93.1945 158.852 91.4645 157.852C89.7345 156.852 90.3345 152.132 93.8745 148.852C95.9846 146.959 98.268 145.268 100.694 143.802L102.484 142.722L102.684 142.612L103.114 142.342C103.735 144.457 103.783 146.699 103.254 148.838C102.726 150.978 101.639 152.939 100.104 154.522ZM121.104 140.242C120.104 142.692 118.004 148.952 116.724 148.612C115.624 148.312 114.954 143.562 116.504 138.872C117.296 136.613 118.452 134.499 119.924 132.612C121.494 130.852 123.224 130.272 123.644 130.982C124.214 131.912 121.764 138.712 121.104 140.242ZM138.444 148.532C138.024 148.752 137.614 148.902 137.444 148.792C137.274 148.682 137.624 148.422 137.624 148.422C137.624 148.422 139.804 146.092 140.624 145.032C141.114 144.402 141.694 143.672 142.324 142.852V143.092C142.394 145.882 139.684 147.802 138.484 148.532H138.444ZM151.814 145.532C151.504 145.312 151.554 144.532 152.594 142.302C153.324 140.832 154.345 139.526 155.594 138.462C155.783 139.002 155.881 139.57 155.884 140.142C155.888 141.35 155.496 142.526 154.769 143.49C154.041 144.455 153.017 145.154 151.854 145.482L151.814 145.532Z"
            fill="url('#myGradient')" />
    </g>
    <defs>
        <filter id="filter0_d_303_17215" x="0.723999" y="0" width="260" height="260"
            filterUnits="userSpaceOnUse" color-interpolation-filters="sRGB">
            <feFlood flood-opacity="0" result="BackgroundImageFix" />
            <feColorMatrix in="SourceAlpha" type="matrix"
                values="0 0 0 0 0 0 0 0 0 0 0 0 0 0 0 0 0 0 127 0" result="hardAlpha" />
            <feOffset dy="4" />
            <feGaussianBlur stdDeviation="20" />
            <feComposite in2="hardAlpha" operator="out" />
            <feColorMatrix type="matrix"
                values="0 0 0 0 0.0367917 0 0 0 0 0.0348958 0 0 0 0 0.0484375 0 0 0 0.1 0" />
            <feBlend mode="normal" in2="BackgroundImageFix" result="effect1_dropShadow_303_17215" />
            <feBlend mode="normal" in="SourceGraphic" in2="effect1_dropShadow_303_17215"
                result="shape" />
        </filter>
        <clipPath id="clip0_303_17215">
            <rect width="100" height="74.99" fill="white" transform="translate(81.1045 88.802)" />
        </clipPath>
    </defs>
</svg>