<svg width="261" height="261" viewBox="0 0 261 261" fill="none" xmlns="http://www.w3.org/2000/svg">
    <defs>
        <linearGradient id="myGradient" gradientTransform="rotate(60)">
            <stop offset="0%" stop-color="#e21143" />
            <stop offset="100%" stop-color="#ffb03a" />
        </linearGradient>
    </defs>

    <g clip-path="url(#clip0_303_17225)">
        <path
            d="M93.9649 168.15L90.8649 85.6C90.8103 84.2868 91.275 83.005 92.1583 82.0319C93.0417 81.0587 94.2726 80.4725 95.5849 80.4L165.785 76C166.47 75.9586 167.157 76.057 167.803 76.289C168.45 76.5211 169.042 76.882 169.545 77.35C170.043 77.8168 170.444 78.3776 170.725 79C170.996 79.632 171.135 80.3124 171.135 81V171C171.137 171.688 170.998 172.369 170.725 173C170.455 173.624 170.064 174.188 169.575 174.66C169.077 175.119 168.492 175.475 167.855 175.705C167.218 175.935 166.541 176.035 165.865 176L98.7649 173C97.5027 172.95 96.3061 172.424 95.4156 171.528C94.5252 170.632 94.0069 169.433 93.9649 168.17V168.15Z"
            fill="url('#myGradient')" />
        <path fill-rule="evenodd" clip-rule="evenodd"
            d="M160.265 76.36L150.605 77L150.135 88.33C150.134 88.4728 150.168 88.6137 150.235 88.74C150.306 88.8601 150.41 88.9573 150.535 89.02C150.66 89.0884 150.802 89.1196 150.945 89.11C151.087 89.1009 151.223 89.0485 151.335 88.96L155.735 85.62L159.455 88.55C159.569 88.636 159.703 88.6911 159.845 88.71C159.99 88.7241 160.135 88.6963 160.265 88.63C160.394 88.5689 160.499 88.467 160.565 88.34C160.641 88.2206 160.679 88.0813 160.675 87.94L160.265 76.36ZM152.745 114.36C150.985 115.73 137.805 116.67 137.805 114.71C138.085 107.25 134.745 106.92 132.885 106.92C131.025 106.92 128.155 107.45 128.155 111.45C128.155 115.45 132.495 117.83 137.585 120.53C144.825 124.36 153.585 129.01 153.585 140.69C153.585 151.83 144.485 158 132.865 158C120.865 158 110.425 153.16 111.605 136.37C112.075 134.37 127.295 134.87 127.295 136.37C127.105 143.3 128.685 145.37 132.675 145.37C135.745 145.37 137.135 143.68 137.135 140.84C137.135 136.53 132.615 133.99 127.405 131.07C120.405 127.12 112.075 122.46 112.075 111.78C112.075 101.1 119.425 94 132.515 94C145.605 94 152.745 101 152.745 114.31V114.36Z"
            fill="white" />
    </g>
    <defs>
        <filter id="filter0_d_303_17225" x="0.724121" y="0.405762" width="260" height="260"
            filterUnits="userSpaceOnUse" color-interpolation-filters="sRGB">
            <feFlood flood-opacity="0" result="BackgroundImageFix" />
            <feColorMatrix in="SourceAlpha" type="matrix"
                values="0 0 0 0 0 0 0 0 0 0 0 0 0 0 0 0 0 0 127 0" result="hardAlpha" />
            <feOffset dy="4" />
            <feGaussianBlur stdDeviation="20" />
            <feComposite in2="hardAlpha" operator="out" />
            <feColorMatrix type="matrix"
                values="0 0 0 0 0.0367917 0 0 0 0 0.0348958 0 0 0 0 0.0484375 0 0 0 0.1 0" />
            <feBlend mode="normal" in2="BackgroundImageFix" result="effect1_dropShadow_303_17225" />
            <feBlend mode="normal" in="SourceGraphic" in2="effect1_dropShadow_303_17225"
                result="shape" />
        </filter>
        <clipPath id="clip0_303_17225">
            <rect width="80.27" height="100" fill="white" transform="translate(90.865 76)" />
        </clipPath>
    </defs>
</svg>