<svg xmlns="http://www.w3.org/2000/svg" width="33.9334" height="52.603" viewBox="0 0 33.9334 52.603">
  <g id="logo-samsonvt-white" transform="translate(-89 -1015)">
    <!-- <g id="Group_1" data-name="Group 1" transform="translate(132.734 1033.05)">
      <path id="Path_1" data-name="Path 1" d="M515.056,193.461h.881v2.624h.511v-2.624h.877v-.489h-2.269Z"
    transform="translate(-353.839 -192.572)" fill="#fff"/>
      <path id="Path_2" data-name="Path 2"
    d="M522.863,192.972l-.943,1.561-.938-1.561h-.552v3.115h.511v-2.225l.947,1.57h.062l.948-1.561v2.22h.511v-3.115Z"
    transform="translate(-356.745 -192.572)" fill="#fff"/>
      <path id="Path_3" data-name="Path 3"
    d="M173.66,202.405c-3.79-.751-5.434-1.609-5.434-3.469,0-2.145,1.859-3.4,5.148-3.4a8.533,8.533,0,0,1,6.186,2.54l1.645-3.111a11.614,11.614,0,0,0-7.759-2.862c-5.614,0-8.653,3.076-8.653,6.972,0,3.219,1.894,5.614,8.587,6.759,3.29.572,5.471,1.752,5.471,3.683,0,2.289-1.967,3.755-5.578,3.755a10.341,10.341,0,0,1-7.581-3.54l-1.716,3.074a12.173,12.173,0,0,0,9.226,3.9c5.614,0,9.082-3.147,9.082-7.33-.007-4.045-2.9-5.868-8.623-6.977Z"
    transform="translate(-163.975 -192.105)" fill="#fff"/>
      <path id="Path_4" data-name="Path 4"
    d="M223.029,209.846a6.981,6.981,0,0,0-5.725-2.789,8.873,8.873,0,0,0,0,17.736A6.981,6.981,0,0,0,223.029,222v2.5h3.433V207.345h-3.433Zm-5.434,11.514a5.43,5.43,0,1,1,3.844-1.59,5.434,5.434,0,0,1-3.844,1.59Z"
    transform="translate(-188.179 -200.191)" fill="#fff"/>
      <path id="Path_5" data-name="Path 5"
    d="M272.7,207.06a7.336,7.336,0,0,0-5.935,2.718,5.351,5.351,0,0,0-4.935-2.718,5.58,5.58,0,0,0-4.792,2.289v-2H253.6v17.163h3.432v-9.44a4.262,4.262,0,0,1,4.148-4.577c2.36,0,3.29,1.68,3.29,4.434v9.583h3.441v-9.44a4.262,4.262,0,0,1,4.148-4.577c2.36,0,3.29,1.68,3.29,4.434v9.583h3.432V214.92c-.005-5.074-2.294-7.861-6.084-7.861Z"
    transform="translate(-212.45 -200.192)" fill="#fff"/>
      <path id="Path_6" data-name="Path 6"
    d="M320.6,213.923c-2-.39-4.041-.644-4.041-1.931,0-1.18,1.859-1.538,3.54-1.5a10.339,10.339,0,0,1,5.042,1.431l1.18-3.217a13.661,13.661,0,0,0-6.222-1.645c-4.219,0-6.972,2.037-6.972,4.9,0,2.753,1.323,4.4,6.937,5.4,2.11.39,3.361.9,3.361,2.182,0,1.041-1.323,1.859-3.54,1.821a9.81,9.81,0,0,1-5.972-2.36l-1.358,3.362a11.959,11.959,0,0,0,7.438,2.432c4.469,0,6.866-2.253,6.866-5.649,0-2.112-1.216-4.257-6.258-5.222Z"
    transform="translate(-244.33 -200.19)" fill="#fff"/>
      <path id="Path_7" data-name="Path 7"
    d="M355.84,207.058a8.868,8.868,0,1,0,8.868,8.868,8.868,8.868,0,0,0-8.868-8.868Zm0,14.3a5.434,5.434,0,1,1,5.436-5.435A5.434,5.434,0,0,1,355.84,221.36Z"
    transform="translate(-262.941 -200.191)" fill="#fff"/>
      <path id="Path_8" data-name="Path 8"
    d="M398.527,207.059a6.822,6.822,0,0,0-5.364,2.289v-2h-3.432v17.163h3.432v-9.44a4.714,4.714,0,0,1,4.724-4.572c2.933,0,3.861,1.68,3.861,4.434v9.583h3.424v-9.87c0-5.082-2.57-7.585-6.646-7.585Z"
    transform="translate(-286.065 -200.192)" fill="#fff"/>
      <path id="Path_9" data-name="Path 9"
    d="M434.776,207.606l-3.9-14.875H424.58l6.794,24.029h4.577l9.992-18.955-.009.074h6.293L449.9,216.76h5.725l2.324-18.879h6.293l.608-5.149H442.321Z"
    transform="translate(-304.915 -192.441)" fill="#fff"/>
    </g> -->
    <g id="Group_2" data-name="Group 2" transform="translate(105.917 1015)">
      <path id="Path_10" data-name="Path 10" d="M122.517,152.822l-16.929,9.8v10.646l16.826-9.8Z"
        transform="translate(-105.588 -152.822)" fill="#54c8ee" />
      <path id="Path_11" data-name="Path 11"
        d="M105.59,204.751v23.441l6.725-3.915V210.152l10.2-6.1-.051-9.107Z"
        transform="translate(-105.587 -175.589)" fill="#54c8ee" />
    </g>
    <g id="Group_3" data-name="Group 3" transform="translate(89 1015)">
      <path id="Path_12" data-name="Path 12" d="M68.745,152.822l.1,10.646,16.826,9.8V162.621Z"
        transform="translate(-68.745 -152.822)" fill="#1a81ad" />
      <path id="Path_13" data-name="Path 13"
        d="M68.757,204.054l10.2,6.1v14.121l6.725,3.915V204.75l-16.868-9.8Z"
        transform="translate(-68.752 -175.587)" fill="#1a81ad" />
    </g>
  </g>
</svg>