<svg width="62" height="62" viewBox="90 -8 80 80" fill="none" xmlns="http://www.w3.org/2000/svg">
    <g clip-path="url(#clip0_6407_2702)">
        <path
            d="M101.326 2.96069V16.5329C101.326 21.0376 102.818 23.5591 107.034 25.8769C111.251 28.1946 120.817 32.6061 124.512 37.3156C126.769 40.1921 128.107 48.958 121.835 53.2534L110.85 59.6219"
            stroke="url(#paint0_linear_6407_2702)" stroke-width="3.43979" stroke-miterlimit="10" />
        <path
            d="M110.851 59.6208C110.479 59.8358 110.018 59.5639 110.018 59.1292V44.7969C110.018 37.7127 116.544 36.8957 121.32 33.2228C126.095 29.5498 126.698 25.9633 126.139 20.8032C125.579 15.6431 122.18 13.9374 118.222 11.532C114.933 9.53285 105.442 4.13036 102.329 2.36328C101.881 2.10841 101.328 2.43838 101.328 2.96065"
            stroke="url(#paint1_linear_6407_2702)" stroke-width="3.43979" stroke-miterlimit="10" />
        <path
            d="M158.3 2.96069V16.5329C158.3 21.0376 156.808 23.5591 152.593 25.8769C148.376 28.1946 138.809 32.6061 135.114 37.3156C132.858 40.1921 131.519 48.958 137.792 53.2534L148.777 59.6219"
            stroke="url(#paint2_linear_6407_2702)" stroke-width="3.43979" stroke-miterlimit="10" />
        <path
            d="M148.777 59.6208C149.148 59.8358 149.609 59.5639 149.609 59.1292V44.7969C149.609 37.7127 143.084 36.8957 138.307 33.2228C133.532 29.5498 132.929 25.9633 133.489 20.8032C134.048 15.6431 137.448 13.9374 141.405 11.532C144.695 9.53285 154.185 4.13036 157.298 2.36328C157.746 2.10841 158.299 2.43838 158.299 2.96065"
            stroke="url(#paint3_linear_6407_2702)" stroke-width="3.43979" stroke-miterlimit="10" />
        <!-- <path
            d="M40.9256 23.8174C37.6839 23.8174 35.056 21.1776 35.056 17.9211C35.056 14.6646 37.6839 12.0248
        40.9256 12.0248C44.1674 12.0248 46.7952 14.6646 46.7952 17.9211C46.7952 19.4845 46.1768
        20.9853 45.0769 22.0901C43.976 23.1961 42.4819 23.8162 40.9268 23.8162M40.9268
        7.90918C36.9148 7.90918 33.2958 10.3373 31.7622 14.0615C30.2274 17.7879 31.078 22.0731
        33.9177 24.9222C36.7551 27.7714 41.023 28.6214 44.7303 27.075C48.4353 25.5287 50.8491
        21.8933 50.8446 17.8608C50.8389 12.3627 46.3999 7.90918 40.9256 7.90918"
            fill="#222222" /> -->
        <!-- <path d="M62.5127 23.8172C59.2709 23.8172 56.6431 21.1774 56.6431 17.9209C56.6431
        14.6644 59.2709 12.0246 62.5127 12.0246C65.7544 12.0246 68.3823 14.6644 68.3823
        17.9209C68.3823 21.1774 65.7544 23.8172 62.5127 23.8172ZM62.5127 7.91017C58.4985 7.90448
        54.8773 10.3304 53.3402 14.0545C51.8009 17.781 52.6493 22.0684 55.4878 24.9187C58.3252
        27.7712 62.5954 28.6224 66.3027 27.0783C70.0099 25.532 72.4248 21.8943 72.4192
        17.8618C72.4067 12.3717 67.9802 7.92268 62.5127 7.91017Z" fill="#222222"/>
<path d="M84.0885 23.8162C81.7143 23.8162 79.5736 22.3791 78.664 20.1762C77.7556 17.9733 78.2585
        15.4371 79.9372 13.7508C81.6147 12.0656 84.1394 11.5604 86.3323 12.473C88.5252 13.3855
        89.9569 15.5349 89.9569 17.9198C89.9569 21.1764 87.3268 23.8162 84.0873 23.8162M93.0322
        0.044297L90.308 1.61339C90.1098 1.73172 89.9886 1.94677 89.9932 2.17889V9.90259C87.9283
        8.33919 85.3356 7.65193 82.7745 7.99215C77.6219 8.70899 73.8965 13.3002 74.2363
        18.5127C74.5739 23.7251 78.8645 27.7895 84.0647 27.8271C86.1828 27.8146 88.242 27.1171
        89.9343 25.8336V26.6949C89.9343 27.0533 90.2231 27.3423 90.581 27.3423H93.2802C93.449
        27.3423 93.6144 27.2741 93.7356 27.1535C93.8568 27.0317 93.9247 26.8656 93.9247
        26.6938V0.610944C93.9077 0.40158 93.7945 0.213836 93.62 0.101189C93.4445 -0.0103195 93.2259
        -0.0308008 93.0322 0.0431592" fill="#222222"/>
<path d="M45.1269 34.6189H47.8261C48.1829 34.6189 48.4706 34.909 48.4706 35.2663V52.9439C48.4706
        53.3023 48.1818 53.5913 47.8261 53.5913H45.1269C44.7701 53.5913 44.4824 53.3012 44.4824
        52.9439V35.2663C44.4824 34.9079 44.7713 34.6189 45.1269 34.6189Z" fill="#222222"/>
<path d="M30.5362 8.4281H27.6592C27.3896 8.43265 27.1506 8.59991 27.0486 8.85251L22.4714
        21.5178L17.8818 8.81724C17.781 8.56464 17.542 8.39737 17.2701 8.39282H13.9253C13.6569
        8.39282 13.4167 8.56236 13.3272 8.81724L8.71268 21.4803L4.12529 8.81724C4.02448 8.57715
        3.78775 8.42127 3.5261 8.4281H0.650203C0.438391 8.42582 0.24017 8.52936 0.116707
        8.70345C-0.00449044 8.87754 -0.0339403 9.10056 0.0408171 9.29968L6.43711 26.9875C6.53565
        27.2401 6.77691 27.4073 7.04763 27.4142H10.3947C10.6632 27.4096 10.8999 27.2401 10.9928
        26.9875L15.5949 14.3119L20.1845 26.9875C20.2831 27.2401 20.5243 27.4073 20.7951
        27.4142H24.1422C24.4117 27.4085 24.653 27.2401 24.7527 26.9875L31.1376 9.29968C31.2158
        9.10284 31.1909 8.87982 31.0719 8.70345C30.9519 8.52709 30.7525 8.42354 30.5407 8.4281"
        fill="#222222"/>
<path d="M63.3809 34.2059C60.9841 33.9886 58.593 34.6702 56.6663 36.1152V35.2664C56.6663 34.908
        56.3775 34.6189 56.0218 34.6189H53.3226C52.9635 34.6189 52.6758 34.9091 52.6758
        35.2664V52.9542C52.6736 53.1283 52.7393 53.2955 52.8616 53.4218C52.9828 53.5459 53.1482
        53.6164 53.3237 53.6164H56.0229C56.3797 53.6084 56.6674 53.3137 56.6674
        52.9542V44.2303C56.6301 41.1604 58.9113 38.5604 61.9491 38.2145C63.5983 38.0609 65.2317
        38.6139 66.4516 39.7381C67.6737 40.86 68.3658 42.4496 68.3579 44.1109V53.002C68.3556 53.1761
        68.4213 53.3433 68.5437 53.4674C68.6649 53.5914 68.8302 53.6619 69.0035
        53.6619H71.7027C72.0618 53.6562 72.3495 53.3615 72.3495 53.002V44.3009C72.3948 39.1168
        68.5119 34.7464 63.3809 34.207" fill="#222222"/>
<path d="M40.0559 34.6541H37.1811C36.9093 34.6519 36.6635 34.8214 36.5695 35.0786L31.9923
        47.7314L27.4026 35.0786C27.3075 34.8214 27.0651 34.6519 26.7921 34.6541H23.3975C23.129
        34.6519 22.8889 34.8237 22.7994 35.0786L18.2324 47.7416L13.6428 35.0786C13.5567 34.8214
        13.3154 34.6496 13.0447 34.6541H10.1677C9.95586 34.6519 9.75764 34.7554 9.63644
        34.9295C9.51298 35.1036 9.48353 35.3266 9.55828 35.5257L15.9546 53.2135C16.0474 53.4718
        16.291 53.6459 16.5651 53.6505H19.8771C20.1466 53.6459 20.3856 53.473 20.4751
        53.2135L25.1123 40.5027L29.702 53.1657C29.7949 53.424 30.0384 53.5981 30.3125
        53.6027H33.6596C33.9337 53.5981 34.1772 53.4252 34.2701 53.1657L40.6664 35.4779C40.7219
        35.2856 40.6834 35.0763 40.5633 34.9147C40.4433 34.7531 40.2564 34.6576 40.0559 34.6541Z"
        fill="#222222"/>
<path d="M84.0878 50.0777C81.7137 50.0777 79.5729 48.6406 78.6634 46.4377C77.7561 44.2349 78.2579
        41.6975 79.9365 40.0123C81.614 38.3272 84.1388 37.822 86.3317 38.7345C88.5268 39.6471
        89.9563 41.7965 89.9563 44.1814C89.9234 47.4254 87.3149 50.0458 84.0867 50.0777M94.0056
        35.3028C94.0056 34.9444 93.7145 34.6554 93.3589 34.6554H90.6597C90.4886 34.6508 90.3221
        34.7179 90.1998 34.8397C90.0786 34.9637 90.0107 35.1321 90.0141 35.3039V36.1528C85.9217
        33.0703 80.1676 33.6188 76.7254 37.4192C73.2843 41.2196 73.2843 47.0271 76.7254
        50.8275C80.1665 54.6302 85.9205 55.1775 90.0141 52.094C89.9835 55.3379 87.3738 57.9584
        84.1445 57.9903H77.7935C77.4367 57.9903 77.149 58.2804 77.149 58.6377V61.3492C77.149 61.7076
        77.4378 61.9989 77.7935 61.9989H84.0867C89.5519 61.9932 93.9864 57.5476 94.0056
        52.0575V35.3017V35.3028Z" fill="#222222"/> -->
    </g>
    <defs>
        <linearGradient id="paint0_linear_6407_2702" x1="121.423" y1="58.2986" x2="105.035"
            y2="1.40261" gradientUnits="userSpaceOnUse">
            <stop offset="0.05" stop-color="#E63339" />
            <stop offset="0.31" stop-color="#ED6C24" />
            <stop offset="0.39" stop-color="#8A3F1E" />
            <stop offset="0.51" stop-color="#EF7E22" />
            <stop offset="0.93" stop-color="#F6B019" />
        </linearGradient>
        <linearGradient id="paint1_linear_6407_2702" x1="113.818" y1="61.4027" x2="113.818"
            y2="0.567764" gradientUnits="userSpaceOnUse">
            <stop offset="0.06" stop-color="#E63339" />
            <stop offset="0.9" stop-color="#F6B019" />
        </linearGradient>
        <linearGradient id="paint2_linear_6407_2702" x1="138.202" y1="58.2986" x2="154.591"
            y2="1.40261" gradientUnits="userSpaceOnUse">
            <stop offset="0.1" stop-color="#058596" />
            <stop offset="0.3" stop-color="#27949D" />
            <stop offset="0.39" stop-color="#07626B" />
            <stop offset="0.53" stop-color="#52A9AF" />
            <stop offset="0.95" stop-color="#7AC5B5" />
        </linearGradient>
        <linearGradient id="paint3_linear_6407_2702" x1="145.809" y1="61.4027" x2="145.809"
            y2="0.567764" gradientUnits="userSpaceOnUse">
            <stop offset="0.08" stop-color="#058596" />
            <stop offset="0.93" stop-color="#7AC5B5" />
        </linearGradient>
        <clipPath id="clip0_6407_2702">
            <rect width="160" height="62" fill="white" />
        </clipPath>
    </defs>
</svg>